<?xml version="1.0" encoding="UTF-8"?>
<svg xmlns="http://www.w3.org/2000/svg" viewBox="0 0 1024 1024" role="img" aria-label="OpenVPN"><defs><linearGradient id="bg" x1="0" y1="0" x2="1" y2="1"><stop offset="0%" stop-color="#eef8ff"/><stop offset="100%" stop-color="#cbeaff"/></linearGradient><linearGradient id="core" x1="0" y1="0" x2="1" y2="1"><stop offset="0%" stop-color="#f6a44c"/><stop offset="100%" stop-color="#d96a14"/></linearGradient><filter id="shadow" x="-20%" y="-20%" width="140%" height="140%"><feDropShadow dx="0" dy="26" stdDeviation="22" flood-color="#8db7dd" flood-opacity="0.28"/></filter></defs><rect x="84" y="84" width="856" height="856" rx="188" fill="url(#bg)" stroke="#9fd7ff" stroke-width="18" filter="url(#shadow)"/><rect x="162" y="162" width="700" height="700" rx="154" fill="#f8fcff" stroke="#d8eefc" stroke-width="12"/><g transform="translate(220 202)"><circle cx="292" cy="192" r="110" fill="url(#core)"/><path d="M292 250c-44 0-80 36-80 80v126h160V330c0-44-36-80-80-80Zm0-104c-53 0-96 43-96 96v34h52v-34c0-24 20-44 44-44s44 20 44 44v34h52v-34c0-53-43-96-96-96Z" fill="#fff5ec"/><circle cx="292" cy="372" r="26" fill="#d96a14"/><rect x="266" y="390" width="52" height="78" rx="26" fill="#d96a14"/><path d="M92 476c88-48 140-62 200-62s112 14 200 62" fill="none" stroke="#9fd7ff" stroke-width="28" stroke-linecap="round"/><path d="M132 540c72-34 116-44 160-44s88 10 160 44" fill="none" stroke="#dbefff" stroke-width="20" stroke-linecap="round"/></g></svg>
