<svg xmlns="http://www.w3.org/2000/svg" xmlns:xlink="http://www.w3.org/1999/xlink" fill="none" version="1.1" width="18" height="18" viewBox="0 0 18 18"><defs><clipPath id="master_svg0_4878_19847"><rect x="18" y="0" width="18" height="18" rx="0"/></clipPath></defs><g transform="matrix(-1,0,0,1,36,0)" clip-path="url(#master_svg0_4878_19847)"><g><path d="M31.5,15.750001L22.5,15.750001C21.2249999,15.750001,20.25,14.775001,20.25,13.5L20.25,4.5C20.25,3.2249999000000003,21.2249999,2.25,22.5,2.25L31.5,2.25C32.775001,2.25,33.750001,3.2249999000000003,33.750001,4.5L33.750001,13.5C33.750001,14.775001,32.775001,15.750001,31.5,15.750001ZM22.5,3.7500001000000003C22.0500001,3.7500001000000003,21.7500001,4.0500001,21.7500001,4.5L21.7500001,13.5C21.7500001,13.950001,22.0500001,14.25,22.5,14.25L31.5,14.25C31.950001,14.25,32.25,13.950001,32.25,13.5L32.25,4.5C32.25,4.0500001,31.950001,3.7500001000000003,31.5,3.7500001000000003L22.5,3.7500001000000003Z" fill="#3099FF" fill-opacity="1" style="mix-blend-mode:passthrough"/></g><g><path d="M29.25,12L24.7500005,12C24.3000002,12,24,11.700001,24,11.25L24,6.7500005C24,6.3000002,24.3000002,6,24.7500005,6L29.25,6C29.700001,6,30,6.3000002,30,6.7500005L30,11.25C30,11.700001,29.700001,12,29.25,12ZM25.5,10.5L28.499999000000003,10.5L28.499999000000003,7.5L25.5,7.5L25.5,10.5ZM24.7500005,3.7500002C24.3000002,3.7500002,24,3.4500003,24,3.0000002L24,0.75C24,0.29999998,24.3000002,0,24.7500005,0C25.2000003,0,25.5000005,0.30000001,25.5000005,0.75L25.5000005,3C25.5000005,3.45,25.2000003,3.75,24.7500005,3.7500002ZM29.25,3.7500002C28.8,3.7500002,28.5,3.4500003,28.5,3.0000002L28.5,0.75C28.5,0.29999998,28.8,0,29.25,0C29.700001,0,30,0.30000001,30,0.75L30,3C30,3.45,29.700001,3.75,29.25,3.7500002ZM24.7500005,18C24.3000002,18,24,17.700001,24,17.250002L24,15.000001C24,14.550001,24.3000002,14.250002,24.7500005,14.250002C25.2000003,14.250002,25.5000005,14.550001,25.5000005,15.000001L25.5000005,17.250002C25.5000005,17.700001,25.2000003,18,24.7500005,18ZM29.25,18C28.8,18,28.5,17.700001,28.5,17.250002L28.5,15.000001C28.5,14.550001,28.8,14.250002,29.25,14.250002C29.700001,14.250002,30,14.550001,30,15.000001L30,17.250002C30,17.700001,29.700001,18,29.25,18ZM35.250001999999995,7.5000005L33.000001,7.5000005C32.550001,7.5000005,32.250002,7.2000003,32.250002,6.7500005C32.250002,6.3000002,32.550001,6,33.000001,6L35.250001999999995,6C35.700001,6,36,6.3000002,36,6.7500005C36,7.2000003,35.700001,7.5000005,35.250001999999995,7.5000005ZM35.250001999999995,11.25L33.000001,11.25C32.550001,11.25,32.250002,10.95,32.250002,10.5C32.250002,10.05,32.550001,9.75,33.000001,9.75L35.250001999999995,9.75C35.700001,9.75,36,10.05,36,10.5C36,10.95,35.700001,11.25,35.250001999999995,11.25ZM21,7.5000005L18.75,7.5000005C18.29999998,7.5000005,18,7.2000003,18,6.7500005C18,6.3000002,18.30000001,6,18.75,6L21,6C21.45,6,21.75,6.3000002,21.75,6.7500005C21.75,7.2000003,21.45,7.5000005,21,7.5000005ZM21,11.25L18.75,11.25C18.29999998,11.25,18,10.95,18,10.5C18,10.05,18.30000001,9.75,18.75,9.75L21,9.75C21.45,9.75,21.75,10.05,21.75,10.5C21.75,10.95,21.45,11.25,21,11.25Z" fill="#3099FF" fill-opacity="1" style="mix-blend-mode:passthrough"/></g></g></svg>