<svg xmlns="http://www.w3.org/2000/svg" xmlns:xlink="http://www.w3.org/1999/xlink" fill="none" version="1.1" width="30" height="30" viewBox="0 0 30 30"><defs><clipPath id="master_svg0_4647_13960"><rect x="0" y="0" width="30" height="30" rx="0"/></clipPath></defs><g clip-path="url(#master_svg0_4647_13960)"><g><path d="M28.1998066875,14.9998056875Q28.1998066875,15.3238476875,28.1839066875,15.6474986875Q28.1680066875,15.9711516875,28.1362456875,16.2936326875Q28.1044846875,16.6161136875,28.0569376875,16.9366476875Q28.0093896875,17.2571806875,27.9461706875,17.5749966875Q27.8829536875,17.8928126875,27.8042186875,18.2071436875Q27.7254826875,18.5214726875,27.6314196875,18.8315616875Q27.5373536875,19.1416506875,27.4281866875,19.4467506875Q27.3190196875,19.7518496875,27.1950146875,20.0512256875Q27.0710066875,20.3506016875,26.9324626875,20.6435316875Q26.7939146875,20.9364606875,26.6411646875,21.2222406875Q26.4884106875,21.5080186875,26.3218196875,21.7859576875Q26.1552276875,22.0638956875,25.9752006875,22.3333286875Q25.7951736875,22.6027606875,25.6021406875,22.8630336875Q25.4091106875,23.1233066875,25.2035406875,23.3737966875Q24.9979706875,23.6242826875,24.7803556875,23.8643816875Q24.5627436875,24.1044806875,24.3336126875,24.3336146875Q24.1044806875,24.5627456875,23.8643796875,24.7803606875Q23.6242826875,24.9979746875,23.3737946875,25.2035446875Q23.1233066875,25.4091126875,22.8630336875,25.6021446875Q22.6027606875,25.7951736875,22.3333286875,25.9752026875Q22.0638956875,26.1552316875,21.7859576875,26.3218216875Q21.5080186875,26.4884126875,21.2222406875,26.6411666875Q20.9364606875,26.7939186875,20.6435296875,26.9324626875Q20.3505996875,27.0710086875,20.0512236875,27.1950146875Q19.7518486875,27.3190196875,19.4467486875,27.4281866875Q19.1416506875,27.5373536875,18.8315616875,27.6314196875Q18.5214726875,27.7254826875,18.2071436875,27.8042186875Q17.8928126875,27.8829536875,17.5749966875,27.9461706875Q17.2571806875,28.0093896875,16.9366476875,28.0569366875Q16.6161136875,28.1044846875,16.2936326875,28.1362456875Q15.9711516875,28.1680066875,15.6474986875,28.1839046875Q15.3238476875,28.1998066875,14.9998056875,28.1998066875Q14.6757636875,28.1998066875,14.3521116875,28.1839046875Q14.0284616875,28.1680066875,13.7059806875,28.1362456875Q13.3834976875,28.1044846875,13.0629626875,28.0569376875Q12.7424276875,28.0093896875,12.4246116875,27.9461706875Q12.1067966875,27.8829536875,11.7924661875,27.8042186875Q11.4781360875,27.7254826875,11.1680469875,27.6314196875Q10.8579578875,27.5373536875,10.5528583875,27.4281866875Q10.2477588875,27.3190196875,9.9483832875,27.1950146875Q9.6490077875,27.0710066875,9.3560771875,26.9324626875Q9.0631465875,26.7939146875,8.777367587499999,26.6411646875Q8.4915880875,26.4884106875,8.213647887499999,26.3218196875Q7.9357080875,26.1552276875,7.6662768875,25.9752006875Q7.3968457875,25.7951736875,7.1365732875,25.6021406875Q6.8763007875,25.4091106875,6.6258129875,25.2035406875Q6.3753251875,24.9979706875,6.1352262875,24.7803556875Q5.8951272875,24.5627436875,5.6659950875,24.3336126875Q5.4368629875,24.1044806875,5.2192496875,23.8643796875Q5.0016364875,23.6242826875,4.7960667875,23.3737946875Q4.590496587500001,23.1233066875,4.3974651875,22.8630336875Q4.2044336875,22.6027606875,4.0244056875,22.3333286875Q3.8443777875,22.0638956875,3.6777869875,21.7859576875Q3.5111962875,21.5080186875,3.3584439875000003,21.2222406875Q3.2056916875,20.9364606875,3.0671459875,20.6435296875Q2.9286001875,20.3505996875,2.8045947875,20.0512236875Q2.6805893175,19.7518486875,2.5714229975,19.4467486875Q2.4622565475,19.1416506875,2.3681922575,18.8315616875Q2.2741278375,18.5214726875,2.1953921275,18.2071436875Q2.1166563675,17.8928126875,2.0534389575,17.5749966875Q1.9902215275,17.2571806875,1.9426747375,16.9366476875Q1.8951279375,16.6161136875,1.8633662905,16.2936326875Q1.8316046405,15.9711516875,1.8157046645,15.6474986875Q1.7998046875,15.3238476875,1.7998046875,14.9998056875Q1.7998046875,14.6757636875,1.8157046645,14.3521116875Q1.8316046405,14.0284616875,1.8633662905,13.7059806875Q1.8951279375,13.3834976875,1.9426747375,13.0629626875Q1.9902215275,12.7424276875,2.0534389575,12.4246116875Q2.1166563675,12.1067966875,2.1953920975,11.7924661875Q2.2741278375,11.4781360875,2.3681921975,11.1680469875Q2.4622565475,10.8579578875,2.5714229375,10.5528583875Q2.6805893175,10.2477588875,2.8045947875,9.9483832875Q2.9286001875,9.6490077875,3.0671459875,9.3560771875Q3.2056916875,9.0631465875,3.3584439875000003,8.777367587499999Q3.5111960875,8.4915880875,3.6777867875,8.213647887499999Q3.8443774875,7.9357080875,4.0244054875,7.6662768875Q4.204433487499999,7.3968457875,4.3974651875,7.1365732875Q4.590496587500001,6.8763007875,4.7960667875,6.6258129875Q5.0016364875,6.3753251875,5.2192496875,6.1352262875Q5.4368629875,5.8951272875,5.6659950875,5.6659950875Q5.8951272875,5.4368629875,6.1352262875,5.2192496875Q6.3753251875,5.0016364875,6.6258129875,4.7960667875Q6.8763007875,4.590496587500001,7.1365732875,4.3974651875Q7.3968457875,4.2044336875,7.6662768875,4.0244056875Q7.9357080875,3.8443777875,8.2136482875,3.6777869875Q8.4915880875,3.5111962875,8.777367587499999,3.3584439875000003Q9.0631465875,3.2056916875,9.3560771875,3.0671459875Q9.6490077875,2.9286001875,9.9483832875,2.8045947875Q10.2477588875,2.6805893175,10.5528583875,2.5714229975Q10.8579578875,2.4622565475,11.1680469875,2.3681922575Q11.4781360875,2.2741278375,11.7924661875,2.1953921275Q12.1067966875,2.1166563675,12.4246116875,2.0534389575Q12.7424276875,1.9902215275,13.0629626875,1.9426747375Q13.3834976875,1.8951279375,13.7059806875,1.8633662905Q14.0284616875,1.8316046405,14.3521116875,1.8157046645Q14.6757636875,1.7998046875,14.9998056875,1.7998046875Q15.3238476875,1.7998046875,15.6474986875,1.8157046645Q15.9711516875,1.8316046405,16.2936326875,1.8633662905Q16.6161136875,1.8951279375,16.9366476875,1.9426747375Q17.2571806875,1.9902215275,17.5749966875,2.0534389575Q17.8928126875,2.1166563675,18.2071436875,2.1953920975Q18.5214726875,2.2741278375,18.8315616875,2.3681921975Q19.1416506875,2.4622565475,19.4467506875,2.5714229375Q19.7518496875,2.6805893175,20.0512256875,2.8045947875Q20.3506016875,2.9286001875,20.6435316875,3.0671459875Q20.9364606875,3.2056916875,21.2222406875,3.3584439875000003Q21.5080186875,3.5111960875,21.7859576875,3.6777867875Q22.0638956875,3.8443774875,22.3333286875,4.0244054875Q22.6027606875,4.204433487499999,22.8630336875,4.3974651875Q23.1233066875,4.590496587500001,23.3737966875,4.7960667875Q23.6242826875,5.0016364875,23.8643816875,5.2192496875Q24.1044806875,5.4368629875,24.3336146875,5.6659950875Q24.5627456875,5.8951272875,24.7803606875,6.1352262875Q24.9979746875,6.3753251875,25.2035446875,6.6258129875Q25.4091126875,6.8763007875,25.6021446875,7.1365732875Q25.7951736875,7.3968457875,25.9752026875,7.6662768875Q26.1552316875,7.9357080875,26.3218216875,8.2136482875Q26.4884126875,8.4915880875,26.6411666875,8.777367587499999Q26.7939186875,9.0631465875,26.9324626875,9.3560771875Q27.0710086875,9.6490077875,27.1950146875,9.9483832875Q27.3190196875,10.2477588875,27.4281866875,10.5528583875Q27.5373536875,10.8579578875,27.6314196875,11.1680469875Q27.7254826875,11.4781360875,27.8042186875,11.7924661875Q27.8829536875,12.1067966875,27.9461706875,12.4246116875Q28.0093896875,12.7424276875,28.0569366875,13.0629626875Q28.1044846875,13.3834976875,28.1362456875,13.7059806875Q28.1680066875,14.0284616875,28.1839066875,14.3521116875Q28.1998066875,14.6757636875,28.1998066875,14.9998056875Z" fill="#00CC7E" fill-opacity="1"/></g><g><path d="M18.3002948875,20.3998036875C18.7973494875,20.3998036875,19.200294487500003,20.8027486875,19.200294487500003,21.299803687500003C19.200294487500003,21.7968606875,18.7973494875,22.1998046875,18.3002948875,22.1998046875L11.7002944375,22.1998046875C11.2032386975,22.1998046875,10.80029449461,21.7968606875,10.80029449461,21.299803687500003C10.80029449461,20.8027486875,11.2032386975,20.3998036875,11.7002944375,20.3998036875L18.3002948875,20.3998036875ZM15.0002941875,7.7998046875C15.4973497875,7.7998046875,15.9002942875,8.2027483275,15.9002942875,8.6998046675L15.9002942875,15.0856141875L17.6367201875,13.1913952875C17.9594444875,12.832950587500001,18.507368087499998,12.792637387500001,18.8790797875,13.0999884875C19.250793487499998,13.4073409875,19.314130787499998,13.953083487499999,19.0226964875,14.3374013875L18.9638986875,14.4082116875L15.6638984875,18.0082096875C15.3315176875,18.3708546875,14.7695495875,18.3994416875,14.4020821875,18.072401687499998L14.336691587499999,18.0082096875L11.0366916675,14.4082116875C10.7126075695,14.0550446875,10.7221874375,13.5098437875,11.0584777875,13.1682791875C11.3947692475,12.8267144875,11.9397563875,12.8086542875,12.2979219875,13.1272053875L12.3638983875,13.1913952875L14.1002945875,15.086814887500001L14.1002945875,8.6998046675C14.1002945875,8.2027483275,14.503238487499999,7.7998046875,15.0002941875,7.7998046875Z" fill="#FFFFFF" fill-opacity="1" style="mix-blend-mode:passthrough"/></g></g></svg>