<svg xmlns="http://www.w3.org/2000/svg" xmlns:xlink="http://www.w3.org/1999/xlink" fill="none" version="1.1" width="32" height="32" viewBox="0 0 32 32"><defs><clipPath id="master_svg0_4647_13821"><rect x="0" y="0" width="32" height="32" rx="0"/></clipPath></defs><g clip-path="url(#master_svg0_4647_13821)"><g><path d="M18.17559025,27.87209903125L22.99159025,27.87209903125L22.99159025,27.84009703125C27.59958825,27.45609903125,31.02358825,23.42409703125,30.65559025,18.81609803125C30.36759225,15.24809903125,27.82359325,12.25609873125,24.35159125,11.376098631249999C23.91959425,6.96009873125,19.98359325,3.74409851125,15.56759225,4.17609863325C11.80759225,4.54409850125,8.81559225,7.488098631250001,8.38359265,11.23209813125C3.82359245,11.968098131249999,0.70359254,16.27209903125,1.43959228,20.83209803125C2.0955923199999997,24.89609903125,5.59959225,27.87209903125,9.71159265,27.87209903125L13.98359225,27.87209903125" fill="#00CC7E" fill-opacity="1" style="mix-blend-mode:passthrough"/></g><g><g transform="matrix(-1,0,0,-1,47.6796875,55.77734375)"><path d="M31.67984345,27.888671875L23.83984375,36.288671475L29.64784435,36.288671475L29.64784435,43.952670874999995L33.85584375,43.968671875L33.85584375,36.288671475L39.51984275,36.288671475L31.67984345,27.888671875Z" fill="#FFFFFF" fill-opacity="1" style="mix-blend-mode:passthrough"/></g><g><path d="" fill="#FFFFFF" fill-opacity="1" style="mix-blend-mode:passthrough"/></g></g></g></svg>