<svg xmlns="http://www.w3.org/2000/svg" xmlns:xlink="http://www.w3.org/1999/xlink" fill="none" version="1.1" width="18" height="18" viewBox="0 0 18 18"><defs><clipPath id="master_svg0_4878_19937"><rect x="0" y="0" width="18" height="18" rx="0"/></clipPath></defs><g clip-path="url(#master_svg0_4878_19937)"><g><path d="M9.5213118,3.9971952L8.4829416,3.9971952C8.3889351,3.9965684,8.3120527,4.0719438,8.3108177,4.1659446L8.3108177,9.9270401C8.3108177,9.9821653,8.3366928,10.031665,8.3816929,10.063165L11.949049,12.589901C12.0278,12.643901,12.134673,12.629276,12.190923,12.553902L12.808546,11.737156C12.866329,11.663139,12.849277,11.555655,12.771422,11.503158L9.6934357,9.3454189L9.6934357,4.1648192C9.6915903,4.0712605,9.6148863,3.9965618,9.5213118,3.9971952ZM14.265413,5.5721874L17.649395,6.3731833C17.757395,6.3979335,17.863144,6.3191829,17.863144,6.2123089L17.880018,2.8317006C17.880018,2.6922011,17.71352,2.6123266,17.602146,2.7000761L14.200163,5.2763138C14.147074,5.3149977,14.121914,5.3814349,14.136062,5.44558C14.150207,5.5097265,14.200976,5.5594192,14.265413,5.5721874ZM17.88452,11.873281L16.660526,11.466032C16.572725,11.436025,16.476799,11.48003,16.442276,11.566156C16.056734,12.575544,15.453275,13.487457,14.674911,14.236894C13.974607,14.916662,13.15049,15.455891,12.247171,15.825386C11.303898,16.211432,10.294152,16.409023,9.2749367,16.407007C8.2556248,16.410044,7.2456827,16.212414,6.302702,15.825386C5.3993831,15.45589,4.5752668,14.916662,3.8749635,14.236894C3.1808939,13.566133,2.624485,12.766294,2.2369716,11.88228C1.8420014,10.972801,1.6390175,9.9915829,1.6407255,9.0000458C1.6407255,7.9988008,1.8420997,7.0279307,2.2414727,6.1155605C2.6274521,5.2306867,3.1840572,4.4305668,3.8794644,3.7609472C5.3278713,2.3627737,7.2640476,1.5839446,9.2771883,1.5897077C10.308808,1.5908328,11.307803,1.7854569,12.249424,2.1724551C13.438932,2.6590393,14.486398,3.4379635,15.294784,4.4370689L16.585154,3.4583237C14.797315,1.2574623,12.108169,-0.014297332,9.2726879,0.000090000009C4.1022134,0.0023399827,-0.051265988,4.0748196,0.00048375005,9.0922947C0.052233487,14.020895,4.185463,18,9.2771873,18C13.281042,18,16.690901,15.538512,17.990269,12.091531C18.023018,12.001968,17.975105,11.903082,17.88452,11.873281Z" fill="#3099FF" fill-opacity="1" style="mix-blend-mode:passthrough"/></g></g></svg>