<svg xmlns="http://www.w3.org/2000/svg" xmlns:xlink="http://www.w3.org/1999/xlink" fill="none" version="1.1" width="18" height="18" viewBox="0 0 18 18"><defs><clipPath id="master_svg0_4878_19995"><rect x="0" y="0" width="18" height="18" rx="0"/></clipPath></defs><g clip-path="url(#master_svg0_4878_19995)"><g><path d="M15.80078075,7.44746115C15.42636675,6.53691385,14.89023375,5.73359395,14.19414175,5.03749995L10.12656215,0.96992189C9.80488305,0.6482421899999999,9.43046855,0.48828125,9.00156215,0.48828125C8.572656649999999,0.48828125,8.198242149999999,0.6482421899999999,7.87656215,0.96992189L3.80898425,4.98476555C3.11289075,5.68085955,2.57851565,6.53691385,2.2023437599999998,7.44746115C1.82792969,8.303515449999999,1.66796875,9.26679705,1.66796875,10.23007775C1.66796875,11.19335925,1.82792969,12.10390625,2.20410156,13.01445425C2.57851565,13.87050825,3.11464835,14.67382825,3.81074215,15.36992225C4.50683595,16.06601525,5.31015635,16.60039125,6.22070315,16.97656225C7.07675745,17.35097725,8.04179665,17.51269525,9.00507835,17.51269525C9.96835895,17.51269525,10.87890625,17.35273325,11.78945375,16.97656225C12.70000075,16.60039125,13.50332075,16.06601525,14.19941375,15.36992225C14.89550775,14.67382825,15.42988175,13.87050825,15.80605475,12.95996125C16.18046975,12.10390625,16.34218775,11.13886625,16.34218775,10.17558575C16.33691375,9.21406265,16.12246175,8.303515449999999,15.80078075,7.44746115ZM14.83749975,12.58730525C14.51581975,13.39062525,14.03417975,14.08671925,13.44531275,14.67558625C12.85644575,15.26445425,12.16035075,15.74609325,11.35703085,16.06777425C10.60820295,16.389453250000003,9.80488305,16.54941325,8.94707015,16.54941325C8.08925815,16.54941325,7.34042935,16.389453250000003,6.53710935,16.06777425C5.73378895,15.74609325,5.03769545,15.26445425,4.44882825,14.67558625C3.85996105,14.08671925,3.37832025,13.39062525,3.0566406500000003,12.58730525C2.73496095,11.83847625,2.57500005,11.03515625,2.57500005,10.17734335C2.57500005,9.37402345,2.73496095,8.57070355,3.0566406500000003,7.76738265C3.37832025,6.96406265,3.85996105,6.26796915,4.44882825,5.67910195L8.51992225,1.61152335C8.67988305,1.55878905,8.841601350000001,1.50429685,9.00156215,1.50429685C9.16152385,1.50429685,9.323242149999999,1.55703125,9.43046855,1.66425775L13.49980575,5.73359395C14.08867275,6.32246115,14.57031275,7.01855465,14.89199275,7.82187465C15.21367275,8.57070355,15.37363275,9.37402345,15.37363275,10.23183635C15.31914175,11.03339725,15.15917975,11.83671925,14.83749975,12.58730525Z" fill="#00CC7E" fill-opacity="1" style="mix-blend-mode:passthrough"/></g><g><path d="M15.887141,7.423315025C15.507454,6.505737325,14.957259,5.676049725,14.255892,4.972924725L13.68636,4.403393225L12.496321,3.213354325L11.2008133,1.917846525L10.3166332,1.033666845C10.2603836,0.977416815,10.2058907,0.921166835,10.1478834,0.866674665C9.7875319,0.527416825,9.3076487,0.353393391,8.811945900000001,0.411401201C8.4234695,0.457104325,8.0877266,0.641674635,7.8099928,0.914135575C7.7449532,0.979174615,7.6799145,1.0424559150000001,7.6148758,1.107494955C7.2861643,1.430932425,6.9574537,1.756127725,6.6287427,2.0795651250000002C6.1875315,2.515502725,5.7463207,2.949682425,5.30511,3.385619925C4.9271803,3.758276225,4.549250600000001,4.132690225,4.1713208999999996,4.505346825C3.9551098,4.718041925,3.7336254,4.927221825,3.5314769999999998,5.150463625C2.8037426,5.952026325,2.24475825,6.939916625,1.91428947,7.969994525C1.564484786,9.059838325,1.499445722,10.255150825,1.664680094,11.383666625C1.82815665,12.492846625,2.2640941100000003,13.531714625,2.9144847,14.444018625C3.540266,15.321166625,4.3453441,16.069994625,5.2787428,16.609643625C5.7480783,16.882104625,6.2543287,17.112378625,6.7728834,17.275855625C7.3213205,17.449878625,7.8943672,17.544799625,8.4674149,17.581714625C9.6205397,17.655542625,10.7824535,17.490308625,11.851204,17.042066625C12.837336,16.628980625,13.72679,16.010229625,14.454524,15.224487625C15.184016,14.436987625,15.748275,13.486010625,16.082259,12.464721625C16.440852,11.369603625,16.514681,10.163744925,16.326594,9.029955825C16.236946,8.483276325,16.082259,7.945385025,15.887141,7.423315025C15.84847,7.317846325,15.677962,7.363549225,15.718391,7.470775625C15.915267,7.998119325,16.071711999999998,8.539526025,16.161361,9.094994525C16.254524,9.661010725,16.270345,10.237572625,16.226399,10.808862625C16.142024,11.921557625,15.788704,12.985033625,15.210383,13.939526625C14.66722,14.836010625,13.921907,15.616479625,13.05179,16.201830625C12.139484,16.815307625,11.0847969,17.224878625,9.9931955,17.363746625C8.8787422,17.506128625,7.7027664,17.421752625,6.6392894,17.047340625C5.640852,16.697534625,4.7180004,16.128002625,3.9586253,15.393236625C3.1904614000000002,14.649682625,2.54885978,13.725073625,2.18147695,12.716089625C1.7930004,11.649095625,1.68225822,10.499486625,1.80003166,9.374486925C1.91604728,8.272338425000001,2.3115551500000002,7.221166625,2.8969066000000003,6.284252125C3.2115549999999997,5.779760825,3.5877271,5.328002925,4.0096021,4.911401225L4.8902659,4.0412843249999995C5.317414299999999,3.619409325,5.7445631,3.197533825,6.1734691,2.775658825C6.5654612,2.388940225,6.9574537,2.002221425,7.3494453,1.613744825C7.5445633,1.422143325,7.7379227,1.230541765,7.9330397,1.038940255C8.212532,0.7629637149999999,8.562336,0.5871824649999999,8.9596024,0.576635565C9.3867502,0.566088705,9.7664375,0.738354325,10.0670242,1.035424645C10.2515945,1.218237045,10.4344063,1.402807325,10.617219,1.585619925L11.770344,2.738744925L13.050032,4.018432425L13.960579,4.928979425C14.336751,5.305151425,14.691829,5.693627825,14.992415,6.134838625C15.278938,6.553197825,15.521517,7.003197625,15.716634,7.472534225C15.760579,7.574486725,15.931087,7.528783825,15.887141,7.423315025Z" fill="#00CC7E" fill-opacity="1" style="mix-blend-mode:passthrough"/></g><g><path d="M14.751264,12.56355990625C14.028804,14.35652790625,12.4344664,15.73641090625,10.5747004,16.24617690625C8.6481385,16.77527790625,6.5036068,16.30242590625,4.9672792,15.02801190625C4.2360291,14.42156690625,3.6330994,13.65867590625,3.24110723,12.79383290625C2.82099009,11.86746490625,2.61708383,10.86902810625,2.67333382,9.85125450625C2.72958383,8.81766080625,3.05126351,7.78230900625,3.5926697,6.89988760625C3.8774354,6.43582490625,4.2272400999999995,6.02625460625,4.612201000000001,5.64129350625L6.4473572,3.80613730625L8.4038024,1.84969207625C8.4582944,1.79519989625,8.5110288,1.72840300625,8.5707946,1.68269988625C8.5743098,1.68094205625,8.5760684,1.67566862625,8.5795836,1.67391082625C8.5848575,1.6703951962499999,8.549701200000001,1.69852021625,8.5725522,1.6862155162499999C8.600677000000001,1.67215299625,8.6393495,1.66512176625,8.6692319,1.65457488625C8.7430606,1.63172331625,8.816888299999999,1.61062957625,8.894232299999999,1.6000826962499999C9.0629821,1.57547332625,9.240521000000001,1.6088717562500001,9.367084,1.73016083625C9.523528599999999,1.87957486625,9.672942599999999,2.03602021625,9.824115299999999,2.18719208625L11.9985285,4.36160610625C12.4766541,4.839731206250001,12.954779,5.31609820625,13.431146,5.79422330625C14.076264,6.44109820625,14.563178,7.20574710625,14.888373,8.06004380625C15.064155,8.52059030625,15.183686,9.005746406250001,15.239936,9.49617670625C15.268062,9.74754330625,15.29267,10.00945760625,15.278607,10.26258280625C15.264544,10.52625460625,15.229388,10.78992650625,15.185443,11.05008220625C15.099311,11.55984790625,14.960444,12.06434090625,14.756537,12.54070790625C14.712592,12.64441890625,14.863765,12.73406690625,14.90771,12.62859790625C15.120404,12.12586390625,15.269818,11.60203590625,15.359468,11.06414510625C15.401654,10.80926230625,15.431537,10.55262180625,15.450873,10.29422280625C15.47021,10.03055100625,15.443843,9.75633240625,15.413959,9.49441810625C15.301459,8.50828600625,14.949897,7.54324670625,14.406734,6.71355960625C13.923333,5.97527790625,13.262396,5.37586400625,12.641889,4.75535610625L10.3286071,2.4420749062500002L9.5868106,1.70027801625C9.535833799999999,1.64930143625,9.4866147,1.59480926625,9.4286075,1.55086395625C9.233489500000001,1.40144989025,8.9786067,1.39266082825,8.748333500000001,1.44715301525C8.65517,1.46824676525,8.514545,1.48934051425,8.4424739,1.55613738625C8.257903599999999,1.72664520625,8.0856385,1.91297331625,7.9063411,2.09227019625L6.8481383,3.1504733062500003L4.6983337,5.30027770625C4.4961853000000005,5.50242610625,4.2905214,5.70105930625,4.1006775,5.91551260625C3.42919326,6.67488720625,2.95634162,7.57840300625,2.69794321,8.55574650625C2.427240089,9.58055110625,2.411419772,10.67039490625,2.66454476,11.70047290625C2.89833385,12.65144990625,3.3571229000000002,13.55144990625,3.9864197,14.30027790625C4.6051698000000005,15.03855890625,5.3856382,15.65027790625,6.2663022999999995,16.04402790625C7.2102475,16.46766090625,8.2315364,16.67508190625,9.2668881,16.62586390625C11.2479429,16.53094190625,13.09892,15.47801190625,14.237983,13.86258190625C14.513959,13.47234790625,14.738959,13.05047290625,14.918256,12.60750490625C14.962201,12.50555090625,14.793452,12.45984790625,14.751264,12.56355990625Z" fill="#00CC7E" fill-opacity="1" style="mix-blend-mode:passthrough"/></g><g><path d="M12.8041992,9.05292970375C12.5897465,8.83847656075,12.2680664,8.83847656075,12.1081057,9.05292970375L10.179785299999999,10.98125004375L8.1987305,9.05292970375C7.9842772,8.83847656075,7.6625977,8.83847656075,7.5026367,9.05292970375L5.19990236,11.35566404375C4.985449217,11.570117043749999,4.985449217,11.89179704375,5.19990236,12.05175784375C5.41435546,12.26621104375,5.7360351099999995,12.26621104375,5.89599609,12.05175784375L7.8243165,10.12519524375L9.750878799999999,12.05175784375C9.965332,12.26621104375,10.2870121,12.26621104375,10.446972800000001,12.05175784375L12.7497072,9.74902343375C13.0168943,9.53632807375,13.0168943,9.21464842375,12.8041992,9.05292970375Z" fill="#00CC7E" fill-opacity="1" style="mix-blend-mode:passthrough"/></g><g><path d="M12.86484525,8.99100463C12.71015785,8.843348388,12.486915549999999,8.760731202,12.277736149999999,8.829285888C12.17050935,8.86444214,12.10019685,8.93299682,12.02461095,9.01034057C11.90507985,9.13514528,11.78027485,9.25467652,11.65898605,9.37596554L10.435548350000001,10.599403L10.11738445,10.917567L10.24218895,10.917567C9.71132995,10.4007703,9.18047045,9.8839734,8.64961095,9.36893433C8.540626549999999,9.26346558,8.43164225,9.15799683,8.32265785,9.05077027C8.19961095,8.93123901,8.06777505,8.827528076,7.88847805,8.8081921386C7.72500155,8.788856201,7.56504055,8.850379638,7.45605635,8.97166871C7.4402358500000005,8.98924683,7.42441555,9.00682496,7.406837449999999,9.02440308L7.14492345,9.28631714L5.31504068,11.1162C5.25703287,11.1742077,5.19902503,11.2304578,5.14277504,11.288465500000001C4.937110977,11.5011609,4.872071914,11.857996700000001,5.10410316,12.0794811C5.23242348,12.202528000000001,5.38711098,12.297449799999999,5.57168126,12.297449799999999C5.73164225,12.297449799999999,5.85644686,12.2253797,5.96191565,12.1111219C6.01992345,12.0495985,6.08144685,11.991590500000001,6.1412125500000005,11.9318249L7.84453275,10.2285045L7.88847805,10.1845592L7.76367355,10.1845592L8.71464995,11.135536C9.03984545,11.460731299999999,9.35976745,11.7911999,9.69023605,12.1111219C9.84668155,12.2622936,10.07695485,12.3449109,10.289649950000001,12.269325C10.39336105,12.2324109,10.46191545,12.1620984,10.53574375,12.086512299999999C10.66230635,11.9581921,10.790626549999999,11.8316295,10.91894675,11.7033093L12.267189049999999,10.3550671L12.73828265,9.8839734C12.76289225,9.859364,12.78750135,9.8329968,12.812110950000001,9.8101453C12.97207165,9.662489,13.08808705,9.46912962,13.03183745,9.24237183C13.00547025,9.14393434,12.945704450000001,9.05428588,12.86484525,8.99100463C12.77695465,8.92069214,12.65215015,9.04549682,12.74004075,9.11580932C12.92461105,9.26170775,12.88945485,9.49901247,12.72949365,9.65018427C12.697853049999999,9.68006712,12.66445495,9.70994997,12.63281395,9.74159056L12.21445465,10.1599499L10.91543145,11.4589734L10.46543125,11.9089735C10.439064049999999,11.9353406,10.41269685,11.95995,10.38632965,11.988075C10.32832195,12.0513561,10.275587550000001,12.100575,10.18769695,12.1181531C10.07519725,12.1410046,9.957423649999999,12.1040905,9.86601735,12.0355358C9.75351715,11.9511609,9.658595550000001,11.8351452,9.56015775,11.7367077L8.95019695,11.1267469C8.60214995,10.7787,8.261134349999999,10.4236218,7.90781405,10.0843641L7.88847805,10.0650281C7.85507965,10.0316297,7.797071949999999,10.0316297,7.76367355,10.0650281L6.26425945,11.5644422L5.93027496,11.8984265C5.8476578,11.9810436,5.7667985,12.090028,5.64902502,12.1181531C5.4820328400000005,12.156824799999999,5.32031411,12.0654187,5.21132973,11.9441297C5.10058753,11.8210828,5.11289223,11.640028000000001,5.19550942,11.506434200000001C5.24121255,11.4326062,5.31152505,11.3728406,5.37304848,11.3113172L7.10449385,9.57987177C7.264454649999999,9.41991085,7.42968915,9.26522338,7.5808608500000005,9.0982312C7.75136875,8.91190308,7.99570465,8.97869995,8.15742345,9.13690308C8.24004055,9.21776244,8.32265785,9.29862183,8.40527515,9.3777234C8.962501549999999,9.9208875,9.519728149999999,10.4622937,10.07695485,11.0054576C10.09101725,11.0177624,10.10332205,11.031824799999999,10.11738445,11.0441296C10.150783050000001,11.077528000000001,10.20703265,11.077528000000001,10.24218895,11.0441296L11.02090025,10.2654186L12.07910295,9.20721558C12.108985950000001,9.17733276,12.14062645,9.14920777,12.16875175,9.11756715C12.23730615,9.04198121,12.30586095,8.98924683,12.41132975,8.98221557C12.53613425,8.97342651,12.65215015,9.03143433,12.74004075,9.11580932C12.822657549999999,9.19315308,12.945704450000001,9.07010621,12.86484525,8.99100463Z" fill="#00CC7E" fill-opacity="1" style="mix-blend-mode:passthrough"/></g></g></svg>