<svg xmlns="http://www.w3.org/2000/svg" xmlns:xlink="http://www.w3.org/1999/xlink" fill="none" version="1.1" width="10.285714149475098" height="18" viewBox="0 0 10.285714149475098 18"><g><path d="M6.4285722,13.5C6.4285722,14.564571,5.5645714,15.428573,4.5,15.428573C3.4354279,15.428573,2.5714288,14.564571,2.5714288,13.5C2.5725694,12.683131,3.087333,11.955256,3.8571432,11.682001L3.8571432,2.5714288L5.1428576,2.5714288L5.1428576,11.682001C5.9262853,11.963142,6.4285722,12.696428,6.4285722,13.5ZM7.7142854,13.5C7.7142854,12.445285,7.2120008,11.521286,6.4285722,10.928573L6.4285722,3.2142861C6.4285722,2.1497142,5.5645714,1.2857144,4.5,1.2857144C3.4354279,1.2857144,2.5714288,2.1497142,2.5714288,3.2142861L2.5714288,10.928573C1.7880003,11.521286,1.2857145,12.445288,1.2857145,13.5C1.2857145,15.277715,2.7222862,16.714287,4.500001,16.714287C6.2777143,16.714287,7.7142868,15.277717,7.7142854,13.5ZM9.000001,13.5C9.000001,15.981001,6.9810004,18.000002,4.5,18.000002C2.0189991,18.000002,0,15.981001,0,13.5C0,12.274714,0.49200004,11.169858,1.2857143,10.356L1.2857143,3.2142861C1.2857143,1.4365714,2.7222857,0,4.5,0C6.2777143,0,7.7142854,1.4365714,7.7142854,3.2142861L7.7142854,10.356C8.5079994,11.169429,9.000001,12.274714,9.000001,13.5ZM10.285714,7.7142863L10.285714,9.000001L8.3571424,9.000001L8.3571424,7.7142863L10.285714,7.7142863ZM10.285714,5.1428576L10.285714,6.4285722L8.3571424,6.4285722L8.3571424,5.1428576L10.285714,5.1428576ZM10.285714,2.571429L10.285714,3.8571434L8.3571424,3.8571434L8.3571424,2.5714288L10.285714,2.571429Z" fill="#3099FF" fill-opacity="1"/></g></svg>