<svg xmlns="http://www.w3.org/2000/svg" xmlns:xlink="http://www.w3.org/1999/xlink" fill="none" version="1.1" width="19" height="19" viewBox="0 0 19 19"><defs><clipPath id="master_svg0_4878_19859"><rect x="0" y="0" width="19" height="19" rx="0"/></clipPath></defs><g clip-path="url(#master_svg0_4878_19859)"><g><path d="M13.457683525,3.16650390625L13.457683525,6.72900390625C13.457683525,7.38484140625,12.926022525,7.91650390625,12.270184024999999,7.91650390625L6.7285161250000005,7.91650390625C6.0726778249999995,7.91650290625,5.541016025,7.38484140625,5.541016025,6.72900390625L5.541016025,3.16650390625L13.457683525,3.16650390625ZM14.645183625,1.97900390625L4.353515625,1.97900390625L4.353515625,6.72900390625C4.35351526260374,8.04068040625,5.416838725,9.104004406249999,6.728515424999999,9.104004406249999L12.270182625,9.104004406249999C13.581858625,9.104004406249999,14.645182625,8.04068040625,14.645182625,6.72900390625L14.645183625,1.97900390625Z" fill="#00CC7E" fill-opacity="1" style="mix-blend-mode:passthrough"/></g><g><path d="M11.677735145,4.15625Q12.271484375,4.15625,12.271484375,4.75L12.271484375,5.9375001Q12.271484375,6.53125,11.677734375,6.53125Q11.083984375,6.53125,11.083984375,5.9375001L11.083984375,4.75Q11.083984375,4.15625,11.677735145,4.15625Z" fill="#00CC7E" fill-opacity="1" style="mix-blend-mode:passthrough"/></g><g><path d="M14.250651375,3.1665035062499998C15.343713375,3.16650390625,16.229816375,4.05260630625,16.229818375,5.14567040625L16.229818375,13.85400390625C16.229816375,14.94706690625,15.343713375,15.83316990625,14.250651375,15.83316990625L4.750651075,15.83316990625C3.657587075,15.83316990625,2.7714839749999998,14.94706690625,2.7714842749999997,13.85400390625L2.7714842749999997,5.14567060625C2.7714839749999998,4.05260660625,3.657587075,3.1665035062499998,4.750651075,3.16650390625L14.250651375,3.1665035062499998ZM14.250651375,1.97900390625L4.750651075,1.97900390625C3.001749075,1.97900372505187,1.58398419380187,3.3967683062500003,1.583984375,5.14567060625L1.583984375,13.85400390625C1.58398419380187,15.60290490625,3.001749075,17.02066990625,4.750651075,17.02066990625L14.250651375,17.02066990625C15.999552375,17.02066990625,17.417318375,15.60290490625,17.417318375,13.85400390625L17.417318375,5.14567060625C17.417318375,3.39676880625,15.999552375,1.97900390625,14.250651375,1.97900390625Z" fill="#00CC7E" fill-opacity="1" style="mix-blend-mode:passthrough"/></g></g></svg>