<svg xmlns="http://www.w3.org/2000/svg" xmlns:xlink="http://www.w3.org/1999/xlink" fill="none" version="1.1" width="90.50006103515625" height="56.55078125" viewBox="0 0 90.50006103515625 56.55078125"><g style="mix-blend-mode:passthrough"><g><g transform="matrix(0,-1,1,0,-56.55078125,56.55078125)"><path d="M0,66.54333125C7.99773,60.06412125,17.9821,56.53560415,28.275,56.5508313179C38.9875,56.5508313179,48.825,60.29333125,56.55,66.54333125L51.8375,72.37588125C45.1725,66.97718125,36.8522,64.03745125,28.275,64.05083125C19.35,64.05083125,11.15,67.17088125000001,4.7125,72.37588125L0,66.54333125ZM7.8525,76.26838125C13.629,71.58828125,20.8406,69.03968125,28.275,69.05078125C36.01,69.05078125,43.115,71.75338125,48.6975,76.26578125L43.985,82.10078125C39.5412,78.50138125000001,33.9937,76.54148125,28.275,76.55078125C22.325,76.55078125,16.86,78.63078125,12.565,82.10088125L7.8525,76.26578125L7.8525,76.26838125ZM15.7075,85.99338125C19.2621,83.11308125,23.6999,81.54428125,28.275,81.55078125C33.035,81.55078125,37.4075,83.21328125,40.8425,85.99088125L36.13,91.82588125000001C33.908,90.02628125,31.1343,89.04638125,28.275,89.05078125C25.4157,89.04638125,22.642,90.02628125,20.42,91.82588125000001L15.7075,85.99088125L15.7075,85.99338125ZM23.5625,95.71828124999999C24.8951,94.63758125,26.5592,94.04878124999999,28.275,94.05078125C30.06,94.05078125,31.7,94.67578125,32.9875,95.71588125L28.275,101.55078125L23.5625,95.71588125L23.5625,95.71828124999999Z" fill="#0088CC" fill-opacity="1"/></g><g transform="matrix(0,1,-1,0,90.50006103515625,-90.50006103515625)"><path d="M90.50006103515625,9.99255C98.49779103515625,3.51334,108.48216103515625,-0.0151771,118.77506103515626,0.0000500679C129.48756103515626,0.0000500679,139.32506103515624,3.74255,147.05006103515626,9.99255L142.33756103515626,15.8251C135.67256103515626,10.4264,127.35226103515626,7.48667,118.77506103515626,7.50005C109.85006103515624,7.50005,101.65006103515626,10.6201,95.21256103515626,15.8251L90.50006103515625,9.99255ZM98.35256103515626,19.7176C104.12906103515625,15.0375,111.34066103515624,12.4889,118.77506103515626,12.5C126.51006103515624,12.5,133.61506103515626,15.2026,139.19756103515624,19.715L134.48506103515626,25.55C130.04126103515625,21.9506,124.49376103515624,19.9907,118.77506103515626,20C112.82506103515625,20,107.36006103515625,22.08,103.06506103515625,25.5501L98.35256103515626,19.715L98.35256103515626,19.7176ZM106.20756103515625,29.4426C109.76216103515625,26.5623,114.19996103515625,24.9935,118.77506103515626,25C123.53506103515625,25,127.90756103515625,26.6625,131.34256103515625,29.4401L126.63006103515625,35.2751C124.40806103515625,33.4755,121.63436103515625,32.4956,118.77506103515626,32.5C115.91576103515625,32.4956,113.14206103515625,33.4755,110.92006103515625,35.2751L106.20756103515625,29.4401L106.20756103515625,29.4426ZM114.06256103515625,39.1675C115.39516103515625,38.0868,117.05926103515625,37.498,118.77506103515626,37.5C120.56006103515625,37.5,122.20006103515625,38.125,123.48756103515625,39.1651L118.77506103515626,45L114.06256103515625,39.1651L114.06256103515625,39.1675Z" fill="#0088CC" fill-opacity="1"/></g></g></g></svg>