<svg xmlns="http://www.w3.org/2000/svg" xmlns:xlink="http://www.w3.org/1999/xlink" fill="none" version="1.1" width="10.285714149475098" height="18" viewBox="0 0 10.285714149475098 18"><g><path d="M6.4285717,13.499999C6.4285717,14.56457,5.5645714,15.428572,4.5,15.428572C3.4354277,15.428572,2.5714288,14.56457,2.5714288,13.499999C2.5725696,12.68313,3.087333,11.955256,3.8571429,11.682001L3.8571429,2.5714288L5.1428576,2.5714288L5.1428576,11.682001C5.9262853,11.963142,6.4285717,12.696428,6.4285717,13.499999ZM7.7142849,13.499999C7.7142849,12.445285,7.2120004,11.521286,6.4285717,10.928573L6.4285717,3.2142859C6.4285717,2.1497142,5.5645714,1.2857144,4.5,1.2857144C3.4354277,1.2857144,2.5714288,2.1497142,2.5714288,3.2142859L2.5714288,10.928573C1.7880002,11.521286,1.2857145,12.445288,1.2857145,13.499999C1.2857145,15.277714,2.7222862,16.714287,4.500001,16.714287C6.2777143,16.714287,7.7142868,15.277716,7.7142849,13.499999ZM9.000001,13.499999C9.000001,15.981001,6.9809999,18.000002,4.5,18.000002C2.0189991,18.000002,0,15.981001,0,13.499999C0,12.274714,0.49200004,11.169858,1.2857143,10.356L1.2857143,3.2142859C1.2857143,1.4365714,2.7222857,0,4.5,0C6.2777143,0,7.7142849,1.4365714,7.7142849,3.2142859L7.7142849,10.356C8.5079994,11.169429,9.000001,12.274714,9.000001,13.499999ZM10.285714,7.7142859L10.285714,9.000001L8.3571424,9.000001L8.3571424,7.7142859L10.285714,7.7142859ZM10.285714,5.1428576L10.285714,6.4285717L8.3571424,6.4285717L8.3571424,5.1428576L10.285714,5.1428576ZM10.285714,2.571429L10.285714,3.8571434L8.3571424,3.8571434L8.3571424,2.5714288L10.285714,2.571429Z" fill="#00CC7E" fill-opacity="1"/></g></svg>