<svg xmlns="http://www.w3.org/2000/svg" xmlns:xlink="http://www.w3.org/1999/xlink" fill="none" version="1.1" width="32" height="32" viewBox="0 0 32 32"><defs><clipPath id="master_svg0_4647_13767"><rect x="0" y="0" width="32" height="32" rx="0"/></clipPath></defs><g clip-path="url(#master_svg0_4647_13767)"><g><path d="M18.17559025,27.87209903125L22.99159025,27.87209903125L22.99159025,27.84009703125C27.59958825,27.45609903125,31.02358825,23.42409703125,30.65559025,18.81609803125C30.36759225,15.24809903125,27.82359325,12.25609873125,24.35159125,11.376098631249999C23.91959425,6.96009873125,19.98359325,3.74409851125,15.56759225,4.17609863325C11.80759225,4.54409850125,8.81559225,7.488098631250001,8.38359265,11.23209813125C3.82359245,11.968098131249999,0.70359254,16.27209903125,1.43959228,20.83209803125C2.0955923199999997,24.89609903125,5.59959225,27.87209903125,9.71159265,27.87209903125L13.98359225,27.87209903125" fill="#3099FF" fill-opacity="1" style="mix-blend-mode:passthrough"/></g><g><g><path d="M16.00015595,11.80810546875L8.16015625,20.20810506875L13.96815685,20.20810506875L13.96815685,27.87210446875L18.17615625,27.88810546875L18.17615625,20.20810506875L23.840155250000002,20.20810506875L16.00015595,11.80810546875Z" fill="#FFFFFF" fill-opacity="1" style="mix-blend-mode:passthrough"/></g><g><path d="" fill="#FFFFFF" fill-opacity="1" style="mix-blend-mode:passthrough"/></g></g></g></svg>