<?xml version="1.0" encoding="UTF-8"?>
<svg xmlns="http://www.w3.org/2000/svg" viewBox="0 0 1024 1024" role="img" aria-label="AdGuardHome"><defs><linearGradient id="bg" x1="0" y1="0" x2="1" y2="1"><stop offset="0%" stop-color="#eef8ff"/><stop offset="100%" stop-color="#cbeaff"/></linearGradient><linearGradient id="shield" x1="0" y1="0" x2="1" y2="1"><stop offset="0%" stop-color="#2f548f"/><stop offset="100%" stop-color="#3f73ba"/></linearGradient><filter id="shadow" x="-20%" y="-20%" width="140%" height="140%"><feDropShadow dx="0" dy="26" stdDeviation="22" flood-color="#8db7dd" flood-opacity="0.28"/></filter></defs><rect x="84" y="84" width="856" height="856" rx="188" fill="url(#bg)" stroke="#9fd7ff" stroke-width="18" filter="url(#shadow)"/><rect x="162" y="162" width="700" height="700" rx="154" fill="#f8fcff" stroke="#d8eefc" stroke-width="12"/><g transform="translate(262 224)"><path d="M250 20C338 86 425 100 492 108V306C492 440 395 544 250 600C105 544 8 440 8 306V108C75 100 162 86 250 20Z" fill="url(#shield)"/><path d="M250 78C314 124 378 136 428 142V291C428 393 356 474 250 521C144 474 72 393 72 291V142C122 136 186 124 250 78Z" fill="#eaf8ff" opacity="0.18"/><path d="M165 310L232 377L353 236" fill="none" stroke="#edf9ff" stroke-width="48" stroke-linecap="round" stroke-linejoin="round"/><rect x="137" y="428" width="226" height="28" rx="14" fill="#9fd7ff" opacity="0.52"/></g></svg>
