<?xml version="1.0" encoding="UTF-8"?>
<svg xmlns="http://www.w3.org/2000/svg" viewBox="0 0 1024 1024" role="img" aria-label="EasyTier"><defs><linearGradient id="bg" x1="0" y1="0" x2="1" y2="1"><stop offset="0%" stop-color="#eef8ff"/><stop offset="100%" stop-color="#cbeaff"/></linearGradient><linearGradient id="core" x1="0" y1="0" x2="1" y2="1"><stop offset="0%" stop-color="#60a5fa"/><stop offset="100%" stop-color="#2563eb"/></linearGradient><filter id="shadow" x="-20%" y="-20%" width="140%" height="140%"><feDropShadow dx="0" dy="26" stdDeviation="22" flood-color="#8db7dd" flood-opacity="0.28"/></filter></defs><rect x="84" y="84" width="856" height="856" rx="188" fill="url(#bg)" stroke="#9fd7ff" stroke-width="18" filter="url(#shadow)"/><rect x="162" y="162" width="700" height="700" rx="154" fill="#f8fcff" stroke="#d8eefc" stroke-width="12"/><g transform="translate(210 238)" fill="none" stroke-linecap="round" stroke-linejoin="round"><path d="M142 316C142 200 236 106 352 106H470" stroke="#9fd7ff" stroke-width="48"/><path d="M462 52L548 106L462 160" stroke="#2f548f" stroke-width="48"/><path d="M462 212C462 328 368 422 252 422H134" stroke="#2f548f" stroke-width="48"/><path d="M142 476L56 422L142 368" stroke="#9fd7ff" stroke-width="48"/></g><circle cx="512" cy="512" r="116" fill="url(#core)"/><path d="M452 512h120M512 452v120" stroke="#eef8ff" stroke-width="42" stroke-linecap="round"/></svg>
