<?xml version="1.0" encoding="UTF-8"?>
<svg xmlns="http://www.w3.org/2000/svg" viewBox="0 0 1024 1024" role="img" aria-label="OpenList"><defs><linearGradient id="bg" x1="0" y1="0" x2="1" y2="1"><stop offset="0%" stop-color="#eef8ff"/><stop offset="100%" stop-color="#cbeaff"/></linearGradient><linearGradient id="folder" x1="0" y1="0" x2="1" y2="1"><stop offset="0%" stop-color="#38bdf8"/><stop offset="100%" stop-color="#14b8a6"/></linearGradient><filter id="shadow" x="-20%" y="-20%" width="140%" height="140%"><feDropShadow dx="0" dy="26" stdDeviation="22" flood-color="#8db7dd" flood-opacity="0.28"/></filter></defs><rect x="84" y="84" width="856" height="856" rx="188" fill="url(#bg)" stroke="#9fd7ff" stroke-width="18" filter="url(#shadow)"/><rect x="162" y="162" width="700" height="700" rx="154" fill="#f8fcff" stroke="#d8eefc" stroke-width="12"/><g transform="translate(236 294)"><path d="M0 108c0-42 34-76 76-76h126c27 0 52 14 66 37l34 55h174c42 0 76 34 76 76v248c0 42-34 76-76 76H76c-42 0-76-34-76-76V108Z" fill="url(#folder)"/><path d="M42 218h468" stroke="#eef8ff" stroke-width="34" stroke-linecap="round" opacity="0.62"/><path d="M128 314h302M128 398h224" stroke="#eef8ff" stroke-width="42" stroke-linecap="round"/></g></svg>
