<?xml version="1.0" encoding="UTF-8"?>
<svg xmlns="http://www.w3.org/2000/svg" viewBox="0 0 1024 1024" role="img" aria-label="ZeroTier"><defs><linearGradient id="bg" x1="0" y1="0" x2="1" y2="1"><stop offset="0%" stop-color="#eef8ff"/><stop offset="100%" stop-color="#cbeaff"/></linearGradient><linearGradient id="node" x1="0" y1="0" x2="1" y2="1"><stop offset="0%" stop-color="#243241"/><stop offset="100%" stop-color="#0f766e"/></linearGradient><filter id="shadow" x="-20%" y="-20%" width="140%" height="140%"><feDropShadow dx="0" dy="26" stdDeviation="22" flood-color="#8db7dd" flood-opacity="0.28"/></filter></defs><rect x="84" y="84" width="856" height="856" rx="188" fill="url(#bg)" stroke="#9fd7ff" stroke-width="18" filter="url(#shadow)"/><rect x="162" y="162" width="700" height="700" rx="154" fill="#f8fcff" stroke="#d8eefc" stroke-width="12"/><g fill="none" stroke-linecap="round" stroke-linejoin="round"><path d="M350 344L512 250L674 344V532L512 626L350 532Z" stroke="#8ec8ff" stroke-width="34"/><path d="M350 344L512 438L674 344M512 438V626" stroke="#2f548f" stroke-width="36"/></g><g fill="url(#node)"><circle cx="512" cy="250" r="72"/><circle cx="350" cy="344" r="72"/><circle cx="674" cy="344" r="72"/><circle cx="350" cy="532" r="72"/><circle cx="674" cy="532" r="72"/><circle cx="512" cy="626" r="72"/></g><g fill="#eaf8ff" opacity="0.78"><circle cx="512" cy="250" r="22"/><circle cx="350" cy="344" r="22"/><circle cx="674" cy="344" r="22"/><circle cx="350" cy="532" r="22"/><circle cx="674" cy="532" r="22"/><circle cx="512" cy="626" r="22"/></g></svg>
