<svg xmlns="http://www.w3.org/2000/svg" xmlns:xlink="http://www.w3.org/1999/xlink" fill="none" version="1.1" width="115" height="115" viewBox="0 0 115 115"><defs><clipPath id="master_svg0_4914_21947"><rect x="0" y="0" width="115" height="115" rx="0"/></clipPath><clipPath id="master_svg1_4905_29038"><rect x="16" y="49" width="83" height="18" rx="0"/></clipPath></defs><g clip-path="url(#master_svg0_4914_21947)"><rect x="0" y="0" width="115" height="115" rx="20" fill="#1AB6FF" fill-opacity="1"/><g clip-path="url(#master_svg1_4905_29038)"><path d="M43.2927933,53.97104120625C43.3012094,53.27747200625,42.7275085,52.70218180625,41.9951458,52.66979650625L33.8203125,52.66979650625L33.8203125,49.01025390625L42.702310600000004,49.01025390625C45.3082165,49.01025390625,47.4756775,50.96044910625,47.4756775,53.35888810625C47.4468085,54.41566660625,46.9642245,55.41573910625,46.1391355,56.12863350625C45.0898925,55.57733730625,43.9321535,55.23577260625,42.737669,55.12510250625C43.0681973,54.817513006249996,43.262839299999996,54.40259600625,43.2821865,53.96435120625M33.92638839,53.14814660625L38.2648468,53.14814660625L38.2648468,67.00356290625L33.92638839,67.00356290625L33.92638839,53.14814660625ZM42.702310600000004,66.97011390624999L38.812901,66.97011390624999L38.812901,62.95598990625L42.702310600000004,62.95598990625C43.7551174,62.91823190625,44.5707325,62.071260906250004,44.5126555,61.07604090625C44.5126555,60.01564290625,43.678198800000004,59.15929690625,42.702310600000004,59.15929690625L38.812901,59.15929690625L38.812901,55.57669260625L41.5602374,55.57669260625C46.0083085,55.57669260625,48.8652535,58.10893440625,48.8652535,61.223224906249996C48.8360795,64.41832890625,46.079654500000004,66.98866990625,42.702310600000004,66.97011390624999Z" fill="#292932" fill-opacity="1" style="mix-blend-mode:passthrough"/><path d="M59.6734171,52.9104257C57.6084957,52.9104257,55.9678721,54.867311,55.755720600000004,57.4263153L51.3359375,57.4263153C51.5834443,52.7097197,55.225347,49,59.669878,49C62.4490375,49,64.6200345,50.0470171,66.0343645,51.7664003L62.792013499999996,54.291954C62.0512455,53.3797183,60.888387699999996,52.8645775,59.6734171,52.9104257ZM59.6734171,63.022673C60.8998737,63.061634,62.0697295,62.533834999999996,62.8096935,61.607696000000004L66.0379045,64.099795C64.6235745,65.819178,62.4384355,66.896301,59.6734171,66.896301C55.0768425,66.896301,51.339474082,62.922318000000004,51.339474082,57.9648762L55.7203655,57.9648762C55.7203655,60.764727,57.4882789,63.022673,59.6734171,63.022673Z" fill="#292932" fill-opacity="1" style="mix-blend-mode:passthrough"/><path d="M99.000459625,53.0209598375L86.681640625,53.0209598375L86.681640625,49.0068359375L99.000459625,49.0068359375L99.000459625,53.0209598375ZM99.000459625,67.0034889375L86.681640625,67.0034889375L86.681640625,62.9893659375L99.000459625,62.9893659375L99.000459625,67.0034889375ZM86.791250395,53.5427956375L91.143852225,53.5427956375L91.143852225,62.4775649375L86.794784275,62.4775649375L86.791250395,53.5427956375ZM97.66037862499999,59.8984909375L91.681299225,59.8984909375L91.681299225,55.8843679375L97.660383625,55.8843679375L97.66037862499999,59.8984909375Z" fill="#292932" fill-opacity="1" style="mix-blend-mode:passthrough"/><path d="M16,49L20.1157026,49L20.1157026,66.939789L16,66.939789L16,49ZM29.266421,66.939789L24.9208899,66.939789L20.6566839,57.6136398L20.6566839,49L20.9466219,49L29.266421,66.939789ZM25.7518101,49L29.867513000000002,49L29.867513000000002,66.939789L25.7518101,58.055194900000004L25.7518101,49Z" fill="#292932" fill-opacity="1" style="mix-blend-mode:passthrough"/><path d="M76.90422245,53.0209598375L68.64453125,53.0209598375L68.64453125,49.0068359375L76.90422245,49.0068359375C80.65551925,49.00683657552781,83.69654725,51.8838288375,83.69654725,55.4327793375C83.69654725,58.9817295375,80.65551925,61.858720937499996,76.90422245,61.858720937499996L73.64418985,61.858720937499996L73.64418985,57.844597837500004L76.90422245,57.844597837500004C78.28247544999999,57.7875633375,79.37119725,56.7178382375,79.37930125,55.4127082375C79.37042625,54.1135649375,78.27683165,53.0538311375,76.90422245,53.0142693375M68.77182123,53.5260701375L73.11028195,53.5260701375L73.11028195,67.0034889375L68.75414101,67.0034889375L68.77182123,53.5260701375Z" fill="#292932" fill-opacity="1" style="mix-blend-mode:passthrough"/></g></g></svg>