<svg xmlns="http://www.w3.org/2000/svg" xmlns:xlink="http://www.w3.org/1999/xlink" fill="none" version="1.1" width="74" height="74" viewBox="0 0 74 74"><rect x="0" y="0" width="74" height="74" rx="15" fill="#1AB6FF" fill-opacity="1"/><g><path d="M30.559999,44.6L27.419999,44.6L27.419999,32.2399998L23.419999,44.6L20.0599995,44.6L16.0999994,32.2600002L16.0999994,44.6L13.2599993,44.6L13.2599993,28.020000500000002L17.6999993,28.020000500000002L21.859999000000002,41.040001000000004L25.999999000000003,28.020000500000002L30.559999,28.020000500000002L30.559999,44.6ZM42.839998,40.360001L36.980000000000004,40.360001L35.719997,44.6L32.519999,44.6L38.059998,28.020000500000002L41.939999,28.020000500000002L47.48,44.6L44.099998,44.6L42.839998,40.360001ZM42.039997,37.72L39.919998,30.54L37.779999000000004,37.72L42.039997,37.72ZM59.18,44.6L55.52,38.08L51.84,44.6L48.480003,44.6L53.68,36.14L48.620003,28.020000500000002L52.300003,28.020000500000002L55.68,34.28L59.100002,28.020000500000002L62.560001,28.020000500000002L57.52,36.16L62.720001,44.6L59.18,44.6Z" fill="#292932" fill-opacity="1"/></g></svg>